<mxfile host="app.diagrams.net" modified="2022-10-12T07:17:54.146Z" agent="5.0 (Macintosh; Intel Mac OS X 10_15_7) AppleWebKit/537.36 (KHTML, like Gecko) Chrome/105.0.0.0 Safari/537.36" etag="Z3NYmsmOWdpNIB1Hyj5C" version="20.4.0" type="github">
  <diagram id="_hUouwMQV8gkaWtI9EFg" name="第 1 页">
    <mxGraphModel dx="1031" dy="809" grid="0" gridSize="10" guides="1" tooltips="1" connect="1" arrows="1" fold="1" page="0" pageScale="1" pageWidth="827" pageHeight="1169" math="0" shadow="0">
      <root>
        <mxCell id="0" />
        <mxCell id="1" parent="0" />
        <mxCell id="eaydKzulYMXYrQOY8sVZ-1" value="组件1" style="rounded=1;whiteSpace=wrap;html=1;" vertex="1" parent="1">
          <mxGeometry x="-29" y="-25" width="69" height="35" as="geometry" />
        </mxCell>
        <mxCell id="eaydKzulYMXYrQOY8sVZ-2" value="" style="rounded=1;whiteSpace=wrap;html=1;" vertex="1" parent="1">
          <mxGeometry x="131" y="84" width="69" height="35" as="geometry" />
        </mxCell>
        <mxCell id="eaydKzulYMXYrQOY8sVZ-3" value="组件2" style="rounded=1;whiteSpace=wrap;html=1;" vertex="1" parent="1">
          <mxGeometry x="88" y="-25" width="69" height="35" as="geometry" />
        </mxCell>
        <mxCell id="eaydKzulYMXYrQOY8sVZ-4" value="" style="rounded=1;whiteSpace=wrap;html=1;" vertex="1" parent="1">
          <mxGeometry x="-45" y="168" width="70" height="35" as="geometry" />
        </mxCell>
        <mxCell id="eaydKzulYMXYrQOY8sVZ-5" value="组件n" style="rounded=1;whiteSpace=wrap;html=1;" vertex="1" parent="1">
          <mxGeometry x="412" y="-25" width="69" height="35" as="geometry" />
        </mxCell>
        <mxCell id="eaydKzulYMXYrQOY8sVZ-6" value="组件n-1" style="rounded=1;whiteSpace=wrap;html=1;" vertex="1" parent="1">
          <mxGeometry x="287" y="-25" width="69" height="35" as="geometry" />
        </mxCell>
        <mxCell id="eaydKzulYMXYrQOY8sVZ-10" value="……" style="text;html=1;strokeColor=none;fillColor=none;align=center;verticalAlign=middle;whiteSpace=wrap;rounded=0;" vertex="1" parent="1">
          <mxGeometry x="194" y="-25" width="60" height="30" as="geometry" />
        </mxCell>
        <mxCell id="eaydKzulYMXYrQOY8sVZ-13" value="" style="rounded=1;whiteSpace=wrap;html=1;" vertex="1" parent="1">
          <mxGeometry x="129" y="146" width="69" height="35" as="geometry" />
        </mxCell>
        <mxCell id="eaydKzulYMXYrQOY8sVZ-14" value="" style="rounded=1;whiteSpace=wrap;html=1;" vertex="1" parent="1">
          <mxGeometry x="125" y="227" width="69" height="35" as="geometry" />
        </mxCell>
      </root>
    </mxGraphModel>
  </diagram>
</mxfile>
